<svg width="1561" height="1024" viewBox="0 0 1561 1024" fill="none" xmlns="http://www.w3.org/2000/svg">
<path d="M854.066 854.066C865.097 865.097 865.147 883.045 853.525 893.451C785.366 954.477 701.952 996.247 611.886 1014.16C512.568 1033.92 409.622 1023.78 316.066 985.026C222.51 946.274 142.547 880.65 86.2876 796.452C30.0283 712.254 6.23673e-06 613.264 0 512C-6.23673e-06 410.736 30.0283 311.746 86.2875 227.548C142.547 143.35 222.51 77.7258 316.066 38.9737C409.622 0.221623 512.568 -9.9177 611.886 9.83792C701.952 27.7531 785.366 69.523 853.525 130.549C865.147 140.955 865.097 158.903 854.066 169.934C843.035 180.965 825.206 180.891 813.513 170.565C753.308 117.398 679.971 80.9788 600.865 65.2438C512.505 47.6679 420.918 56.6885 337.684 91.1649C254.451 125.641 183.31 184.025 133.258 258.933C83.2064 333.841 56.4913 421.909 56.4913 512C56.4913 602.091 83.2064 690.159 133.258 765.067C183.31 839.975 254.451 898.359 337.684 932.835C420.918 967.312 512.505 976.332 600.865 958.756C679.971 943.021 753.308 906.602 813.513 853.435C825.206 843.109 843.035 843.035 854.066 854.066Z" fill="#023859"/>
<path d="M456.2 574.3L531.1 694.7C535.3 701.7 537.4 708.7 537.4 716.4C537.4 729.7 530.4 743 517.8 750.7C511.5 754.9 503.8 757 496.8 757C482.8 757 469.5 750 461.8 738.1L371.5 593.9H302.9V716.4C302.9 738.8 284 757 261.6 757C239.2 757 221 738.8 221 716.4V307.6C221 285.2 239.2 267 261.6 267H372.9C377.1 267 414.2 267.7 452.7 286.6C507.3 313.9 537.4 364.3 537.4 430.1C537.4 434.3 536.7 472.1 517.8 509.9C503.1 538.6 482.1 560.3 456.2 574.3ZM302.9 348.9V512H372.9C407.9 512 430.3 500.1 443.6 474.9C454.8 453.9 455.5 431.5 455.5 430.1C455.5 395.1 442.9 372.7 416.3 359.4C395.3 348.9 372.9 348.9 372.9 348.9H302.9ZM1064.66 757C1042.26 757 1024.06 738.8 1024.06 716.4V430.1L914.159 577.1C906.459 587.6 893.859 593.9 881.259 593.9C868.659 593.9 856.059 587.6 848.359 577.1L738.459 430.1V716.4C738.459 738.8 720.259 757 697.159 757C674.759 757 656.559 738.8 656.559 716.4V307.6C656.559 285.9 674.059 267 697.859 267C710.459 267 722.359 272.6 730.059 283.1L881.259 484.7L1032.46 283.1C1040.16 272.6 1052.06 267 1064.66 267C1088.46 267 1105.96 285.9 1105.96 307.6V716.4C1105.96 738.8 1087.76 757 1064.66 757ZM1385.73 451.8C1406.73 458.1 1528.53 497.3 1532.73 593.9V600.9C1532.73 641.5 1516.63 680 1488.63 708C1457.83 738.8 1415.83 755.6 1369.63 755.6H1364.03C1304.53 753.5 1252.73 719.9 1228.23 667.4C1225.43 661.8 1224.73 655.5 1224.73 649.9C1224.73 634.5 1233.13 619.8 1248.53 612.8C1254.13 610 1259.73 609.3 1265.33 609.3C1280.73 609.3 1296.13 617.7 1303.13 633.1C1314.33 657.6 1338.13 673 1366.83 673.7H1370.33C1394.83 673.7 1415.13 666 1429.83 651.3C1443.83 637.3 1451.53 619.8 1451.53 600.9V598.1C1449.43 565.9 1388.53 537.2 1361.93 529.5L1359.13 528.1C1287.03 502.2 1250.63 456.7 1250.63 393.7V388.1C1252.03 352.4 1268.13 320.2 1298.23 297.8C1323.43 278.2 1357.73 266.3 1394.13 266.3H1400.43C1429.83 267 1459.93 278.9 1484.43 297.1C1494.93 305.5 1500.53 317.4 1500.53 329.3C1500.53 337.7 1497.73 346.8 1492.13 353.8C1483.73 364.3 1471.83 369.9 1459.23 369.9C1450.83 369.9 1442.43 367.8 1434.73 362.2C1424.23 353.8 1410.23 348.9 1397.63 348.2H1393.43C1359.13 348.2 1332.53 365.7 1331.83 390.9V393.7C1331.83 428 1358.43 440.6 1385.73 451.8Z" fill="#023859"/>
</svg>
