<svg width="216" height="216" viewBox="0 0 216 216" fill="none" xmlns="http://www.w3.org/2000/svg">
<rect width="216" height="216" rx="10" fill="#FF0000"/>
<g filter="url(#filter0_d_365_7)">
<path d="M136.984 129H127.773V98.9766L111.566 127.488C111.168 128.215 110.605 128.766 109.879 129.141C109.176 129.516 108.414 129.703 107.594 129.703C106.797 129.703 106.047 129.516 105.344 129.141C104.664 128.766 104.125 128.215 103.727 127.488L87.4492 98.9766V129H78.3086V82.4883C78.3086 81.4336 78.6133 80.4961 79.2227 79.6758C79.8555 78.8555 80.6758 78.3047 81.6836 78.0234C82.1758 77.9062 82.668 77.8711 83.1602 77.918C83.6523 77.9414 84.1211 78.0469 84.5664 78.2344C85.0352 78.3984 85.457 78.6445 85.832 78.9727C86.207 79.2773 86.5234 79.6523 86.7812 80.0977L107.594 116.273L128.406 80.0977C128.945 79.207 129.684 78.5742 130.621 78.1992C131.582 77.8242 132.578 77.7656 133.609 78.0234C134.594 78.3047 135.402 78.8555 136.035 79.6758C136.668 80.4961 136.984 81.4336 136.984 82.4883V129Z" fill="white"/>
</g>
<g filter="url(#filter1_d_365_7)">
<path d="M71.6875 59.5312C71.6875 61.6172 71.4297 63.4805 70.9141 65.1211C70.3984 66.7617 69.6953 68.2148 68.8047 69.4805C67.9375 70.7227 66.9297 71.7891 65.7812 72.6797C64.6328 73.5703 63.4258 74.3086 62.1602 74.8945C60.918 75.457 59.6523 75.8672 58.3633 76.125C57.0977 76.3828 55.9023 76.5117 54.7773 76.5117L73.8672 93H59.7344L40.6797 76.5117H34.1055V67.3711H54.7773C55.9258 67.2773 56.9688 67.043 57.9062 66.668C58.8672 66.2695 59.6875 65.7422 60.3672 65.0859C61.0703 64.4297 61.6094 63.6445 61.9844 62.7305C62.3594 61.793 62.5469 60.7266 62.5469 59.5312V53.7656C62.5469 53.25 62.4766 52.8633 62.3359 52.6055C62.2188 52.3242 62.0547 52.125 61.8438 52.0078C61.6562 51.8672 61.4453 51.7852 61.2109 51.7617C61 51.7383 60.8008 51.7266 60.6133 51.7266H30.4492V93H21.3086V47.1914C21.3086 46.5586 21.4258 45.9609 21.6602 45.3984C21.8945 44.8359 22.2109 44.3438 22.6094 43.9219C23.0312 43.5 23.5234 43.1719 24.0859 42.9375C24.6484 42.7031 25.2578 42.5859 25.9141 42.5859H60.6133C62.6523 42.5859 64.375 42.9609 65.7812 43.7109C67.1875 44.4375 68.3242 45.3633 69.1914 46.4883C70.082 47.5898 70.7148 48.7852 71.0898 50.0742C71.4883 51.3633 71.6875 52.5703 71.6875 53.6953V59.5312Z" fill="white"/>
</g>
<g filter="url(#filter2_d_365_7)">
<path d="M196.754 149.164C196.754 150.969 196.52 152.598 196.051 154.051C195.605 155.48 195.008 156.746 194.258 157.848C193.508 158.949 192.629 159.887 191.621 160.66C190.613 161.434 189.57 162.066 188.492 162.559C187.414 163.051 186.312 163.414 185.188 163.648C184.086 163.883 183.043 164 182.059 164H146.797V154.859H182.059C183.816 154.859 185.176 154.344 186.137 153.312C187.121 152.281 187.613 150.898 187.613 149.164C187.613 148.32 187.484 147.547 187.227 146.844C186.969 146.141 186.594 145.531 186.102 145.016C185.633 144.5 185.047 144.102 184.344 143.82C183.664 143.539 182.902 143.398 182.059 143.398H161.035C159.559 143.398 157.965 143.141 156.254 142.625C154.543 142.086 152.949 141.23 151.473 140.059C150.02 138.887 148.801 137.352 147.816 135.453C146.855 133.555 146.375 131.234 146.375 128.492C146.375 125.75 146.855 123.441 147.816 121.566C148.801 119.668 150.02 118.133 151.473 116.961C152.949 115.766 154.543 114.91 156.254 114.395C157.965 113.855 159.559 113.586 161.035 113.586H192.148V122.727H161.035C159.301 122.727 157.941 123.254 156.957 124.309C155.996 125.363 155.516 126.758 155.516 128.492C155.516 130.25 155.996 131.645 156.957 132.676C157.941 133.684 159.301 134.188 161.035 134.188H182.059H182.129C183.113 134.211 184.156 134.352 185.258 134.609C186.359 134.844 187.449 135.219 188.527 135.734C189.629 136.25 190.672 136.906 191.656 137.703C192.641 138.477 193.508 139.414 194.258 140.516C195.031 141.617 195.641 142.883 196.086 144.312C196.531 145.742 196.754 147.359 196.754 149.164Z" fill="white"/>
</g>
<defs>
<filter id="filter0_d_365_7" x="74.3086" y="77.6367" width="66.6758" height="60.0664" filterUnits="userSpaceOnUse" color-interpolation-filters="sRGB">
<feFlood flood-opacity="0" result="BackgroundImageFix"/>
<feColorMatrix in="SourceAlpha" type="matrix" values="0 0 0 0 0 0 0 0 0 0 0 0 0 0 0 0 0 0 127 0" result="hardAlpha"/>
<feOffset dy="4"/>
<feGaussianBlur stdDeviation="2"/>
<feComposite in2="hardAlpha" operator="out"/>
<feColorMatrix type="matrix" values="0 0 0 0 0 0 0 0 0 0 0 0 0 0 0 0 0 0 0.25 0"/>
<feBlend mode="normal" in2="BackgroundImageFix" result="effect1_dropShadow_365_7"/>
<feBlend mode="normal" in="SourceGraphic" in2="effect1_dropShadow_365_7" result="shape"/>
</filter>
<filter id="filter1_d_365_7" x="17.3086" y="42.5859" width="60.5586" height="58.4141" filterUnits="userSpaceOnUse" color-interpolation-filters="sRGB">
<feFlood flood-opacity="0" result="BackgroundImageFix"/>
<feColorMatrix in="SourceAlpha" type="matrix" values="0 0 0 0 0 0 0 0 0 0 0 0 0 0 0 0 0 0 127 0" result="hardAlpha"/>
<feOffset dy="4"/>
<feGaussianBlur stdDeviation="2"/>
<feComposite in2="hardAlpha" operator="out"/>
<feColorMatrix type="matrix" values="0 0 0 0 0 0 0 0 0 0 0 0 0 0 0 0 0 0 0.25 0"/>
<feBlend mode="normal" in2="BackgroundImageFix" result="effect1_dropShadow_365_7"/>
<feBlend mode="normal" in="SourceGraphic" in2="effect1_dropShadow_365_7" result="shape"/>
</filter>
<filter id="filter2_d_365_7" x="142.375" y="113.586" width="58.3789" height="58.4141" filterUnits="userSpaceOnUse" color-interpolation-filters="sRGB">
<feFlood flood-opacity="0" result="BackgroundImageFix"/>
<feColorMatrix in="SourceAlpha" type="matrix" values="0 0 0 0 0 0 0 0 0 0 0 0 0 0 0 0 0 0 127 0" result="hardAlpha"/>
<feOffset dy="4"/>
<feGaussianBlur stdDeviation="2"/>
<feComposite in2="hardAlpha" operator="out"/>
<feColorMatrix type="matrix" values="0 0 0 0 0 0 0 0 0 0 0 0 0 0 0 0 0 0 0.25 0"/>
<feBlend mode="normal" in2="BackgroundImageFix" result="effect1_dropShadow_365_7"/>
<feBlend mode="normal" in="SourceGraphic" in2="effect1_dropShadow_365_7" result="shape"/>
</filter>
</defs>
</svg>
