<svg width="131" height="40" viewBox="0 0 131 40" fill="none" xmlns="http://www.w3.org/2000/svg">
<path d="M37.3649 13.9398C37.3649 15.4705 37.1757 16.8378 36.7974 18.0417C36.419 19.2457 35.903 20.312 35.2494 21.2408C34.6131 22.1523 33.8735 22.9349 33.0308 23.5884C32.188 24.242 31.3023 24.7838 30.3735 25.2137C29.462 25.6265 28.5332 25.9275 27.5873 26.1167C26.6585 26.3059 25.7814 26.4005 24.9558 26.4005L38.9644 38.5H28.5934L14.6106 26.4005H9.78626V19.6928H24.9558C25.7986 19.624 26.5639 19.4521 27.2519 19.1769C27.9571 18.8845 28.559 18.4975 29.0578 18.0159C29.5738 17.5344 29.9693 16.9582 30.2445 16.2874C30.5197 15.5995 30.6573 14.8169 30.6573 13.9398V9.7088C30.6573 9.33042 30.6057 9.04664 30.5025 8.85745C30.4165 8.65106 30.2961 8.50487 30.1413 8.41887C30.0037 8.31568 29.8489 8.25548 29.677 8.23828C29.5222 8.22108 29.376 8.21248 29.2384 8.21248H7.10321V38.5H0.395584V4.88447C0.395584 4.42009 0.481579 3.98152 0.653569 3.56874C0.82556 3.15596 1.05775 2.79478 1.35013 2.4852C1.65971 2.17562 2.02089 1.93483 2.43367 1.76284C2.84645 1.59085 3.29362 1.50486 3.7752 1.50486H29.2384C30.7347 1.50486 31.9988 1.78004 33.0308 2.33041C34.0627 2.86358 34.8969 3.54294 35.5332 4.3685C36.1868 5.17685 36.6512 6.054 36.9264 6.99995C37.2187 7.9459 37.3649 8.83165 37.3649 9.6572V13.9398ZM87.1562 38.5H80.3969V16.468L68.5038 37.3907C68.2114 37.9238 67.7986 38.328 67.2655 38.6032C66.7495 38.8784 66.1905 39.016 65.5886 39.016C65.0038 39.016 64.4534 38.8784 63.9375 38.6032C63.4387 38.328 63.0431 37.9238 62.7507 37.3907L50.806 16.468V38.5H44.0984V4.3685C44.0984 3.59454 44.3219 2.90658 44.7691 2.30461C45.2335 1.70264 45.8355 1.29847 46.575 1.09208C46.9362 1.00608 47.2974 0.980285 47.6586 1.01468C48.0197 1.03188 48.3637 1.10928 48.6905 1.24687C49.0345 1.36726 49.3441 1.54785 49.6192 1.78864C49.8944 2.01223 50.1266 2.28741 50.3158 2.61419L65.5886 29.1609L80.8613 2.61419C81.2569 1.96063 81.7987 1.49626 82.4866 1.22107C83.1918 0.945886 83.9227 0.902889 84.6795 1.09208C85.4019 1.29847 85.9952 1.70264 86.4596 2.30461C86.924 2.90658 87.1562 3.59454 87.1562 4.3685V38.5ZM130.524 27.613C130.524 28.9373 130.352 30.1327 130.008 31.199C129.681 32.2481 129.242 33.1769 128.692 33.9853C128.141 34.7936 127.497 35.4816 126.757 36.0491C126.017 36.6167 125.252 37.0811 124.461 37.4423C123.67 37.8034 122.861 38.07 122.036 38.242C121.227 38.414 120.462 38.5 119.74 38.5H93.8638V31.7924H119.74C121.03 31.7924 122.027 31.414 122.732 30.6572C123.455 29.9005 123.816 28.8857 123.816 27.613C123.816 26.9938 123.721 26.4263 123.532 25.9103C123.343 25.3943 123.068 24.9472 122.707 24.5688C122.363 24.1904 121.933 23.898 121.417 23.6916C120.918 23.4852 120.359 23.382 119.74 23.382H104.312C103.229 23.382 102.059 23.1929 100.804 22.8145C99.5481 22.4189 98.3785 21.7911 97.295 20.9312C96.2287 20.0712 95.3343 18.9447 94.6119 17.5516C93.9068 16.1584 93.5542 14.4557 93.5542 12.4434C93.5542 10.4312 93.9068 8.73705 94.6119 7.36113C95.3343 5.96801 96.2287 4.84147 97.295 3.98152C98.3785 3.10437 99.5481 2.4766 100.804 2.09822C102.059 1.70264 103.229 1.50486 104.312 1.50486H127.144V8.21248H104.312C103.039 8.21248 102.042 8.59946 101.32 9.37342C100.614 10.1474 100.262 11.1707 100.262 12.4434C100.262 13.7334 100.614 14.7567 101.32 15.5135C102.042 16.253 103.039 16.6228 104.312 16.6228H119.74H119.791C120.514 16.64 121.279 16.7432 122.087 16.9324C122.896 17.1044 123.696 17.3796 124.487 17.758C125.295 18.1363 126.06 18.6179 126.783 19.2027C127.505 19.7702 128.141 20.4582 128.692 21.2666C129.259 22.0749 129.707 23.0037 130.033 24.0528C130.36 25.1019 130.524 26.2887 130.524 27.613Z" fill="#FF0000"/>
</svg>
